HIERARCHY
ROOT Hips
{
	OFFSET -3.958830 18.904000 13.208200
	CHANNELS 6 Xposition Yposition Zposition Zrotation Yrotation Xrotation 
	JOINT LHipJoint
	{
		OFFSET 0.000000 0.000000 0.000000
		CHANNELS 3 Zrotation Yrotation Xrotation
		JOINT LeftUpLeg
		{
			OFFSET 1.800000 -1.400000 0.085000
			CHANNELS 3 Zrotation Yrotation Xrotation
			JOINT LeftLeg
			{
				OFFSET 2.215000 -6.000000 0.000000
				CHANNELS 3 Zrotation Yrotation Xrotation
				JOINT LeftFoot
				{
					OFFSET 2.500000 -6.900000 0.000000
					CHANNELS 3 Zrotation Yrotation Xrotation
					JOINT LeftToeBase
					{
						OFFSET 0.200000 -0.500000 1.950000
						CHANNELS 3 Zrotation Yrotation Xrotation
						End Site
						{
							OFFSET 0.000000 0.000000 0.000000
						}
					}
				}
			}
		}
	}
	JOINT RHipJoint
	{
		OFFSET 0.000000 0.000000 0.000000
		CHANNELS 3 Zrotation Yrotation Xrotation
		JOINT RightUpLeg
		{
			OFFSET -1.800000 -1.400000 0.085000
			CHANNELS 3 Zrotation Yrotation Xrotation
			JOINT RightLeg
			{
				OFFSET -2.215000 -6.000000 0.000000
				CHANNELS 3 Zrotation Yrotation Xrotation
				JOINT RightFoot
				{
					OFFSET -2.500000 -6.900000 0.000000
					CHANNELS 3 Zrotation Yrotation Xrotation
					JOINT RightToeBase
					{
						OFFSET -0.200000 -0.500000 1.950000
						CHANNELS 3 Zrotation Yrotation Xrotation
						End Site
						{
							OFFSET 0.000000 0.000000 0.000000
						}
					}
				}
			}
		}
	}
	JOINT LowerBack
	{
		OFFSET 0.000000 0.000000 0.000000
		CHANNELS 3 Zrotation Yrotation Xrotation
		JOINT Spine
		{
			OFFSET -0.087000 1.940000 -0.288900
			CHANNELS 3 Zrotation Yrotation Xrotation
			JOINT Spine1
			{
				OFFSET 0.000000 1.950000 0.060000
				CHANNELS 3 Zrotation Yrotation Xrotation
				JOINT Neck
				{
					OFFSET 0.000000 0.000000 0.000000
					CHANNELS 3 Zrotation Yrotation Xrotation
					JOINT Neck1
					{
						OFFSET 0.000000 1.600000 0.340000
						CHANNELS 3 Zrotation Yrotation Xrotation
						JOINT Head
						{
							OFFSET 0.000000 1.667000 -0.240000
							CHANNELS 3 Zrotation Yrotation Xrotation
							End Site
							{
								OFFSET 0.000000 0.000000 0.000000
							}
						}
					}
				}
				JOINT LeftShoulder
				{
					OFFSET 0.000000 0.000000 0.000000
					CHANNELS 3 Zrotation Yrotation Xrotation
					JOINT LeftArm
					{
						OFFSET 2.700000 1.550000 -0.730000
						CHANNELS 3 Zrotation Yrotation Xrotation
						JOINT LeftForeArm
						{
							OFFSET 5.450000 0.000000 0.000000
							CHANNELS 3 Zrotation Yrotation Xrotation
							JOINT LeftHand
							{
								OFFSET 3.450000 0.000000 0.000000
								CHANNELS 3 Zrotation Yrotation Xrotation
								JOINT LeftHandIndex1
								{
									OFFSET 0.750000 0.000000 0.000000
									CHANNELS 3 Zrotation Yrotation Xrotation
									End Site
									{
										OFFSET 0.000000 0.000000 0.000000
									}
								}
							}
						}
					}
				}
				JOINT RightShoulder
				{
					OFFSET 0.000000 0.000000 0.000000
					CHANNELS 3 Zrotation Yrotation Xrotation
					JOINT RightArm
					{
						OFFSET -2.700000 1.550000 -0.730000
						CHANNELS 3 Zrotation Yrotation Xrotation
						JOINT RightForeArm
						{
							OFFSET -5.450000 0.000000 0.000000
							CHANNELS 3 Zrotation Yrotation Xrotation
							JOINT RightHand
							{
								OFFSET -3.450000 0.000000 0.000000
								CHANNELS 3 Zrotation Yrotation Xrotation
								JOINT RightHandIndex1
								{
									OFFSET -0.750000 0.000000 0.000000
									CHANNELS 3 Zrotation Yrotation Xrotation
									End Site
									{
										OFFSET 0.000000 0.000000 0.000000
									}
								}
							}
						}
					}
				}
			}
		}
	}
}
MOTION
Frames: 10
Frame Time: 0.016667
-1.718990 16.912570 -1.104560 -9.501988 -21.652663 -0.267374 -15.835285 9.572309 7.007194 37.735229 -0.120609 -33.867222 -60.080936 28.871182 24.104322 1.654155 12.924537 0.368490 -0.163410 -0.492960 -0.177670 18.344806 -7.284330 3.420014 -23.632005 6.278062 -35.124927 28.279637 -21.814469 40.313572 -1.632610 -9.116752 1.008697 -0.475070 0.718990 0.756330 -3.325116 -2.504978 -10.214841 12.752706 -3.062647 38.171926 -3.656295 2.626861 13.388083 3.372302 -1.780989 -16.292547 -12.603455 9.389091 69.190457 -5.067310 6.635070 -3.468680 -16.652276 -10.999332 7.158880 -4.745264 21.108932 -4.836058 -166.660641 -64.713224 147.688780 -3.922899 3.069941 0.986330 0.193320 0.414410 0.262490 10.168176 12.754222 12.260783 14.713557 -29.319314 -11.031656 111.602151 60.631090 62.479481 2.419668 -1.195438 -0.215990 0.386920 0.430470 0.114360 
-1.763350 16.731710 -1.137300 -10.030205 -21.146672 0.425509 -15.807365 9.052594 7.118051 39.944834 0.983150 -33.249290 -65.538191 27.423404 19.365231 1.677386 12.709016 0.468557 -0.168510 -0.498130 -0.203440 18.465926 -6.955324 3.726999 -27.586969 5.631965 -36.042421 35.164547 -24.041339 37.403398 -1.757802 -9.512658 0.885076 -0.461620 0.745630 0.720980 -3.656842 -2.171616 -10.347648 15.691153 -4.453703 37.681281 -4.758172 1.744098 14.090432 3.217450 -3.216970 -16.400814 -16.260902 10.873724 67.560527 -3.272210 4.589270 -3.323700 -15.153178 -9.746845 7.286851 -2.553608 23.042015 -3.394700 -159.263752 -62.668844 134.892361 -3.947245 3.107426 0.970640 0.179100 0.381200 0.267340 9.104208 12.132563 12.054376 13.489818 -30.070264 -10.315361 120.628172 59.011795 70.847964 2.361370 -1.271670 -0.233660 0.417510 0.437630 0.133600 
-1.793290 16.594270 -1.154720 -9.750019 -20.985270 0.475259 -15.813161 8.803176 7.148501 40.760396 1.420800 -32.173838 -68.956760 25.821333 16.040311 1.715810 12.512570 0.559718 -0.164740 -0.499320 -0.227230 18.511853 -6.708483 3.922812 -30.952545 4.922252 -36.055245 40.149467 -25.181580 34.952217 -1.824307 -9.687994 0.839875 -0.458480 0.762700 0.683750 -3.775718 -2.160872 -10.415752 16.827461 -5.275648 37.995354 -5.068917 1.084831 13.940070 3.063277 -4.720848 -16.921739 -20.609179 13.012669 65.874686 -1.090450 2.656510 -2.565690 -13.969502 -9.146678 7.839847 -2.795037 23.571989 -2.733506 -147.945419 -60.620958 115.045426 -3.935486 3.171495 0.954740 0.154380 0.353840 0.283160 8.446101 12.506869 12.086769 14.034203 -29.201370 -10.426542 123.456972 58.467310 73.396734 2.355708 -1.293029 -0.238020 0.434370 0.427830 0.158270 
-1.815280 16.516360 -1.165160 -9.250028 -21.088217 -0.223979 -15.830418 8.824808 7.077969 40.593421 1.391978 -31.019182 -69.616961 25.287238 15.364678 1.772958 12.423133 0.582716 -0.132390 -0.446630 -0.274700 18.502205 -6.577656 4.009946 -32.821735 4.822062 -35.612723 42.369091 -25.666313 34.291718 -1.895632 -9.809005 0.802043 -0.455310 0.759490 0.694900 -3.749414 -2.359373 -10.400275 16.970464 -5.769107 39.871002 -4.675289 0.743487 13.174192 2.876379 -6.212335 -17.703275 -25.491248 15.796547 63.609448 2.075440 0.841780 -3.493230 -13.420574 -9.010122 8.724178 -6.103203 24.174598 -3.605878 -138.317553 -57.955437 96.292268 -3.876403 3.288936 0.953350 0.109730 0.375650 0.314370 8.555185 13.524454 12.251043 16.800070 -27.934981 -11.922709 120.842671 58.654808 69.563598 2.378022 -1.278995 -0.187280 0.418000 0.415010 0.209920 
-1.800870 16.523440 -1.185940 -8.680812 -21.527358 -2.590855 -15.830379 9.106767 6.934968 39.810468 0.805867 -28.761728 -68.595380 25.067217 16.058424 1.845759 12.447933 0.637175 -0.176170 -0.465470 -0.369520 18.450827 -6.655386 3.912340 -32.889010 5.378403 -34.001245 41.005955 -25.484130 35.866325 -1.902033 -9.902398 0.819246 -0.476420 0.842730 0.650010 -3.635713 -2.651553 -10.293848 16.439692 -6.502965 45.007557 -4.378078 0.483274 11.329523 2.819365 -7.793875 -18.301966 -30.223435 17.632702 58.751389 4.478870 -1.026140 -4.026340 -13.487567 -9.553048 9.397434 -11.277523 24.286680 -6.008073 -129.893990 -55.702713 79.985982 -3.822700 3.267807 0.939410 0.100560 0.356350 0.369690 9.092948 15.362006 12.591093 21.373511 -26.107171 -14.563779 112.544817 60.329518 61.028484 2.443628 -1.158062 -0.207460 0.502530 0.417300 0.278030 
-1.762560 16.577950 -1.201000 -8.148214 -22.356797 -4.113901 -15.865560 9.442853 6.840702 38.978460 0.528204 -27.629754 -67.033464 25.392420 17.374820 1.982212 12.429005 0.669708 -0.166370 -0.389110 -0.445470 18.369833 -6.718223 3.770634 -31.895888 6.257587 -33.145317 37.933212 -24.474824 37.731704 -1.852139 -9.848625 0.862621 -0.473620 0.857700 0.632260 -3.427204 -3.058982 -10.203582 14.950561 -6.352679 48.976510 -3.247879 0.695800 9.098986 2.713827 -8.868586 -18.806442 -33.521842 18.564882 54.983285 5.891360 -2.540570 -3.305430 -13.614414 -10.256628 10.089571 -18.613019 24.053789 -9.051627 -121.168949 -53.385856 64.880869 -3.731004 3.333306 0.848280 0.090030 0.356140 0.424690 9.763300 17.293592 12.786135 25.283639 -22.757033 -16.006735 95.872230 61.876003 47.029227 2.477716 -1.233109 -0.136260 0.488830 0.370700 0.367570 
-1.714880 16.696620 -1.197880 -7.108973 -22.048331 -5.256304 -15.873523 9.837233 6.743269 37.164562 -0.461101 -27.724701 -64.104492 25.773949 19.764341 2.067117 12.416769 0.670003 -0.112590 -0.287670 -0.468930 18.292756 -6.899074 3.538398 -30.673953 6.433550 -31.756565 33.998683 -22.676048 38.610728 -1.746144 -9.518626 0.954228 -0.453010 0.832960 0.626260 -3.208881 -3.473546 -10.067044 13.183559 -6.069211 51.787195 -1.920007 0.829269 6.476403 2.552992 -9.520791 -19.502462 -36.206184 19.564382 52.966853 7.664660 -3.911990 -2.967950 -13.183696 -11.770594 10.850710 -29.080920 22.787708 -13.523867 -108.172931 -53.015551 50.043758 -3.593898 3.364115 0.796250 0.051840 0.382870 0.473850 10.065337 19.733382 13.031007 30.775403 -19.921372 -18.351007 73.199086 60.225590 31.117208 2.283315 -1.414575 -0.062290 0.457230 0.307580 0.432330 
-1.654800 16.866420 -1.170410 -6.507848 -21.273856 -5.042057 -15.835502 10.131142 6.702599 35.377159 -1.339919 -28.615721 -60.788349 25.748535 21.794954 1.992277 12.402811 0.638153 -0.081180 -0.236540 -0.455030 18.258687 -7.202108 3.277968 -28.711624 6.360018 -30.818977 29.628075 -20.310602 38.369961 -1.557221 -8.891849 1.123232 -0.410380 0.813680 0.595450 -3.125999 -3.561628 -9.915171 12.865596 -5.929864 51.570882 -1.426722 1.166407 4.275570 2.412008 -9.580750 -19.589556 -37.347900 20.284374 54.265700 7.753740 -4.284970 -2.760050 -13.426022 -13.091571 10.605175 -38.297725 19.401991 -17.020945 -91.012590 -52.566781 36.040426 -3.526531 3.277001 0.799080 0.032780 0.388990 0.475360 10.715609 21.452006 12.936410 36.399818 -17.140172 -20.619900 51.952970 54.068825 17.468683 2.143611 -1.344740 -0.068540 0.481530 0.295080 0.430680 
-1.589280 17.052430 -1.123050 -6.060146 -19.596770 -4.116498 -15.793975 10.402885 6.727383 33.597868 -2.488873 -30.437115 -57.359465 25.704560 24.126285 1.843031 12.439981 0.577468 -0.069440 -0.235950 -0.420860 18.228841 -7.547284 2.968299 -26.524536 5.773814 -29.859552 25.108083 -17.839714 37.220257 -1.325022 -8.083443 1.347975 -0.373640 0.802050 0.571880 -3.046313 -3.623446 -9.766231 12.943829 -6.061073 49.272451 -1.038139 1.127997 2.707052 2.424485 -9.342708 -19.436371 -36.931497 20.708780 57.249503 6.440630 -3.808460 -2.028560 -13.815833 -14.016864 9.848115 -46.664234 15.442189 -19.696561 -69.950127 -50.319868 22.035681 -3.506126 3.131713 0.830780 0.036360 0.378180 0.447840 11.015338 22.490370 12.841935 41.054221 -14.038825 -21.106714 37.180938 46.053830 8.875597 2.113380 -1.162899 -0.112630 0.513820 0.316610 0.388770 
-1.531490 17.247180 -1.075280 -5.443143 -18.200683 -2.603763 -15.735780 10.637772 6.733043 31.599550 -3.342781 -32.267003 -53.845497 25.410325 26.064399 1.744411 12.348729 0.580984 -0.011430 -0.162910 -0.363300 18.215780 -7.918480 2.704935 -24.135227 5.370373 -29.510385 20.563254 -15.243982 35.723187 -1.118318 -7.123320 1.653942 -0.321710 0.773050 0.536800 -3.031316 -3.518145 -9.603009 13.255955 -5.796282 46.013571 -0.866159 1.413288 0.820963 2.288626 -9.307384 -19.074327 -37.596696 21.549899 60.003768 6.097030 -3.858660 -2.115770 -15.536709 -13.901280 8.777683 -53.277006 12.069713 -20.926188 -49.191793 -46.851590 11.095580 -3.464493 2.974788 0.848920 0.009870 0.404980 0.462570 12.917296 22.699945 12.674731 44.413880 -12.170512 -20.378056 27.039121 39.362380 4.389775 2.147807 -1.018489 -0.123130 0.557720 0.275350 0.379660 
